<svg xmlns="http://www.w3.org/2000/svg" version="1.1" xmlns:xlink="http://www.w3.org/1999/xlink" xmlns:svgjs="http://svgjs.com/svgjs" x="0" y="0" viewBox="0 0 512 512" style="enable-background:new 0 0 512 512" xml:space="preserve" fill="#1A1A1D">
	<g>
		<g xmlns="http://www.w3.org/2000/svg">
			<path d="m143.059 404.915-120.045 74.694c-10.031 6.242-23.014-.971-23.014-12.785v-421.648c0-11.814 12.983-19.027 23.014-12.786l120.044 74.694v-61.908c0-11.814 12.983-19.027 23.014-12.786l338.824 210.824c9.471 5.893 9.471 19.679 0 25.572l-338.823 210.823c-10.031 6.241-23.014-.972-23.014-12.786zm-112.941-332.633v367.435l112.941-70.274v-226.886zm143.058 367.436 295.261-183.718-295.261-183.718v53.542l188.662 117.389c9.471 5.893 9.471 19.679 0 25.572l-188.662 117.39zm0-89.015 152.202-94.703-152.202-94.703z">
			</path>
		</g>
	</g>
</svg>
